<?xml version="1.0" standalone="no"?>
<!DOCTYPE svg PUBLIC "-//W3C//DTD SVG 20010904//EN"
 "http://www.w3.org/TR/2001/REC-SVG-20010904/DTD/svg10.dtd">
<svg version="1.0" xmlns="http://www.w3.org/2000/svg"
 width="204.000000pt" height="192.000000pt" viewBox="0 0 204.000000 192.000000"
 preserveAspectRatio="xMidYMid meet">
<metadata>
Created by potrace 1.16, written by Peter Selinger 2001-2019
</metadata>
<g transform="translate(0.000000,192.000000) scale(0.100000,-0.100000)"
fill="#000000" stroke="none">
<path d="M820 1870 c-41 -27 -95 -63 -120 -80 -25 -16 -92 -61 -150 -99 -58
-37 -159 -103 -225 -147 -66 -43 -127 -83 -136 -89 -63 -38 -78 -51 -95 -79
-18 -29 -19 -57 -19 -421 0 -360 1 -392 18 -420 16 -26 62 -61 167 -125 13 -8
29 -19 35 -23 9 -7 93 -62 449 -296 l140 -91 136 0 136 0 125 82 c218 142 441
289 545 357 56 36 110 80 120 96 18 28 19 57 19 420 0 364 -1 392 -19 421 -10
17 -32 40 -48 50 -17 11 -37 24 -47 29 -75 48 -155 101 -202 135 -31 22 -59
40 -63 40 -6 0 -98 62 -106 71 -3 4 -30 21 -60 38 -30 17 -73 44 -95 60 -22
16 -72 49 -112 75 l-72 46 -123 -1 -123 0 -75 -49z m318 -342 c8 -8 12 -52 12
-130 l0 -118 168 0 c225 0 212 11 212 -175 l0 -144 33 -3 32 -3 0 -125 0 -125
-32 -3 -33 -3 0 -79 c0 -58 -4 -83 -16 -94 -14 -14 -72 -16 -492 -16 -381 1
-481 3 -494 14 -15 11 -18 29 -18 94 l0 81 -32 3 -33 3 0 125 0 125 33 3 32 3
0 144 c0 137 1 145 22 159 19 14 64 16 285 16 l263 0 0 25 c0 23 -4 24 -62 27
l-63 3 -3 90 c-2 76 0 92 14 102 23 17 156 17 172 1z"/>
<path d="M837 924 c-44 -41 -77 -53 -77 -25 0 5 -7 12 -16 15 -20 8 -54 -20
-54 -44 0 -17 81 -100 98 -100 12 0 152 144 152 156 0 13 -33 44 -46 44 -5 0
-31 -21 -57 -46z"/>
<path d="M1262 925 c-26 -25 -50 -45 -53 -45 -3 0 -14 9 -24 20 -24 27 -41 25
-61 -6 -17 -25 -17 -26 32 -75 26 -27 51 -49 54 -49 12 0 150 140 150 153 0
14 -30 47 -43 47 -4 0 -28 -20 -55 -45z"/>
</g>
</svg>
